<svg width="20" height="20" viewBox="0 0 20 20" fill="none" xmlns="http://www.w3.org/2000/svg">
<path d="M13.3162 2.20703H6.53647C3.59156 2.20703 1.83594 3.96265 1.83594 6.90756V13.6792C1.83594 16.6322 3.59156 18.3878 6.53647 18.3878H13.3081C16.253 18.3878 18.0087 16.6322 18.0087 13.6873V6.90756C18.0168 3.96265 16.2611 2.20703 13.3162 2.20703ZM6.39084 15.273C6.39084 15.6047 6.11576 15.8798 5.78406 15.8798C5.45235 15.8798 5.17728 15.6047 5.17728 15.273V13.5983C5.17728 13.2666 5.45235 12.9915 5.78406 12.9915C6.11576 12.9915 6.39084 13.2666 6.39084 13.5983V15.273ZM10.5331 15.273C10.5331 15.6047 10.2581 15.8798 9.92635 15.8798C9.59464 15.8798 9.31957 15.6047 9.31957 15.273V11.9155C9.31957 11.5838 9.59464 11.3087 9.92635 11.3087C10.2581 11.3087 10.5331 11.5838 10.5331 11.9155V15.273ZM14.6754 15.273C14.6754 15.6047 14.4003 15.8798 14.0686 15.8798C13.7369 15.8798 13.4619 15.6047 13.4619 15.273V10.2408C13.4619 9.9091 13.7369 9.63403 14.0686 9.63403C14.4003 9.63403 14.6754 9.9091 14.6754 10.2408V15.273ZM14.6754 7.68424C14.6754 8.01595 14.4003 8.29102 14.0686 8.29102C13.7369 8.29102 13.4619 8.01595 13.4619 7.68424V6.89947C11.3988 9.01916 8.81796 10.5159 5.92968 11.2359C5.88114 11.2521 5.8326 11.2521 5.78406 11.2521C5.50898 11.2521 5.26627 11.066 5.19346 10.791C5.11255 10.4673 5.30672 10.1356 5.63843 10.0547C8.3649 9.37513 10.792 7.94313 12.7175 5.92053H11.7062C11.3745 5.92053 11.0995 5.64546 11.0995 5.31375C11.0995 4.98204 11.3745 4.70697 11.7062 4.70697H14.0767C14.1091 4.70697 14.1334 4.72315 14.1657 4.72315C14.2062 4.73124 14.2466 4.73124 14.2871 4.74742C14.3275 4.7636 14.3599 4.78787 14.4003 4.81214C14.4246 4.82832 14.4489 4.83641 14.4732 4.85259C14.4812 4.86069 14.4812 4.86878 14.4893 4.86878C14.5217 4.90114 14.546 4.9335 14.5702 4.96586C14.5945 4.99822 14.6188 5.02249 14.6269 5.05486C14.6431 5.08722 14.6431 5.11958 14.6511 5.16003C14.6592 5.20048 14.6754 5.24093 14.6754 5.28948C14.6754 5.29757 14.6835 5.30566 14.6835 5.31375V7.68424H14.6754Z" fill="#553A6B"/>
</svg>
