<svg width="20" height="20" viewBox="0 0 20 20" fill="none" xmlns="http://www.w3.org/2000/svg">
<path d="M13.352 2.00195H6.648C3.736 2.00195 2 3.73795 2 6.64995V13.346C2 16.266 3.736 18.002 6.648 18.002H13.344C16.256 18.002 17.992 16.266 17.992 13.354V6.64995C18 3.73795 16.264 2.00195 13.352 2.00195ZM6.504 14.922C6.504 15.25 6.232 15.522 5.904 15.522C5.576 15.522 5.304 15.25 5.304 14.922V13.266C5.304 12.938 5.576 12.666 5.904 12.666C6.232 12.666 6.504 12.938 6.504 13.266V14.922ZM10.6 14.922C10.6 15.25 10.328 15.522 10 15.522C9.672 15.522 9.4 15.25 9.4 14.922V11.602C9.4 11.274 9.672 11.002 10 11.002C10.328 11.002 10.6 11.274 10.6 11.602V14.922ZM14.696 14.922C14.696 15.25 14.424 15.522 14.096 15.522C13.768 15.522 13.496 15.25 13.496 14.922V9.94595C13.496 9.61795 13.768 9.34595 14.096 9.34595C14.424 9.34595 14.696 9.61795 14.696 9.94595V14.922ZM14.696 7.41795C14.696 7.74595 14.424 8.01795 14.096 8.01795C13.768 8.01795 13.496 7.74595 13.496 7.41795V6.64195C11.456 8.73795 8.904 10.218 6.048 10.93C6 10.946 5.952 10.946 5.904 10.946C5.632 10.946 5.392 10.762 5.32 10.49C5.24 10.17 5.432 9.84195 5.76 9.76195C8.456 9.08995 10.856 7.67395 12.76 5.67395H11.76C11.432 5.67395 11.16 5.40195 11.16 5.07395C11.16 4.74595 11.432 4.47395 11.76 4.47395H14.104C14.136 4.47395 14.16 4.48995 14.192 4.48995C14.232 4.49795 14.272 4.49795 14.312 4.51395C14.352 4.52995 14.384 4.55395 14.424 4.57795C14.448 4.59395 14.472 4.60195 14.496 4.61795C14.504 4.62595 14.504 4.63395 14.512 4.63395C14.544 4.66595 14.568 4.69795 14.592 4.72995C14.616 4.76195 14.64 4.78595 14.648 4.81795C14.664 4.84995 14.664 4.88195 14.672 4.92195C14.68 4.96195 14.696 5.00195 14.696 5.04995C14.696 5.05795 14.704 5.06595 14.704 5.07395V7.41795H14.696Z" fill="white"/>
</svg>
