<svg width="20" height="21" viewBox="0 0 20 21" fill="none" xmlns="http://www.w3.org/2000/svg">
<path d="M11.666 11.2354H15.8327V9.56869H11.666V11.2354ZM11.666 8.73535H15.8327V7.06869H11.666V8.73535ZM4.16602 13.7354H10.8327V13.277C10.8327 12.652 10.5271 12.1556 9.91601 11.7879C9.3049 11.4201 8.49935 11.2359 7.49935 11.2354C6.49935 11.2348 5.69379 11.419 5.08268 11.7879C4.47157 12.1567 4.16602 12.6531 4.16602 13.277V13.7354ZM7.49935 10.402C7.95768 10.402 8.35018 10.239 8.67685 9.91285C9.00352 9.58674 9.16657 9.19424 9.16602 8.73535C9.16546 8.27646 9.0024 7.88424 8.67685 7.55869C8.35129 7.23313 7.95879 7.0698 7.49935 7.06869C7.0399 7.06757 6.64768 7.23091 6.32268 7.55869C5.99768 7.88646 5.83435 8.27869 5.83268 8.73535C5.83102 9.19202 5.99435 9.58452 6.32268 9.91285C6.65102 10.2412 7.04324 10.4042 7.49935 10.402ZM3.33268 17.0687C2.87435 17.0687 2.48213 16.9056 2.15602 16.5795C1.8299 16.2534 1.66657 15.8609 1.66602 15.402V5.40202C1.66602 4.94368 1.82935 4.55146 2.15602 4.22535C2.48268 3.89924 2.8749 3.73591 3.33268 3.73535H16.666C17.1243 3.73535 17.5168 3.89868 17.8435 4.22535C18.1702 4.55202 18.3332 4.94424 18.3327 5.40202V15.402C18.3327 15.8604 18.1696 16.2529 17.8435 16.5795C17.5174 16.9062 17.1249 17.0692 16.666 17.0687H3.33268Z" fill="#553A6B"/>
</svg>
