<svg width="17" height="17" viewBox="0 0 17 17" fill="none" xmlns="http://www.w3.org/2000/svg">
<g opacity="0.9">
<path d="M12.7497 15.5837C13.1254 15.5837 13.4857 15.4344 13.7514 15.1687C14.0171 14.903 14.1663 14.5427 14.1663 14.167V2.83366C14.1663 2.45794 14.0171 2.0976 13.7514 1.83192C13.4857 1.56625 13.1254 1.41699 12.7497 1.41699H8.49967V6.37533L6.72884 5.31283L4.95801 6.37533V1.41699H4.24967C3.87395 1.41699 3.51362 1.56625 3.24794 1.83192C2.98226 2.0976 2.83301 2.45794 2.83301 2.83366V14.167C2.83301 14.5427 2.98226 14.903 3.24794 15.1687C3.51362 15.4344 3.87395 15.5837 4.24967 15.5837H12.7497Z" fill="white"/>
</g>
</svg>
