<svg width="18" height="18" viewBox="0 0 18 18" fill="none" xmlns="http://www.w3.org/2000/svg">
<path d="M13.6995 6.906L14.1173 6.4875L12.75 5.1345V3.087H12.1725V5.3715L13.6995 6.906ZM4.5 9.75H3H10.9298H4.5ZM3.77925 15.75C3.67275 15.75 3.5835 15.714 3.5115 15.642C3.4395 15.57 3.4035 15.481 3.4035 15.375V13.953C3.1055 13.8345 2.83875 13.587 2.60325 13.2105C2.36775 12.835 2.25 12.4608 2.25 12.0878V5.25C2.25 4.445 2.71275 3.86875 3.63825 3.52125C4.56375 3.17375 6.0975 3 8.2395 3C8.1735 3.1195 8.11225 3.23925 8.05575 3.35925C7.99925 3.47925 7.9515 3.608 7.9125 3.7455C6.32 3.7705 5.1505 3.8745 4.404 4.0575C3.6575 4.24 3.2155 4.52225 3.078 4.90425H7.686C7.6775 5.02925 7.67325 5.15425 7.67325 5.27925C7.67325 5.40425 7.68225 5.52925 7.70025 5.65425H3V9H9.6105C9.8035 9.156 10.0097 9.29725 10.2292 9.42375C10.4487 9.55025 10.6823 9.659 10.9298 9.75H3V12C3 12.4125 3.147 12.7657 3.441 13.0597C3.735 13.3538 4.088 13.5005 4.5 13.5H10.5C10.9125 13.5 11.2657 13.3533 11.5597 13.0597C11.8538 12.7662 12.0005 12.413 12 12V10.011C12.125 10.029 12.25 10.038 12.375 10.038C12.5 10.038 12.625 10.0337 12.75 10.0252V12.0863C12.75 12.4592 12.6322 12.8342 12.3967 13.2113C12.1612 13.5872 11.8942 13.8345 11.5958 13.953V15.375C11.5958 15.4815 11.56 15.5705 11.4885 15.642C11.417 15.7135 11.328 15.7495 11.2215 15.75H11.0483C10.9417 15.75 10.8527 15.714 10.7812 15.642C10.7098 15.57 10.6737 15.481 10.6733 15.375V14.25H4.32675V15.375C4.32675 15.4815 4.29075 15.5705 4.21875 15.642C4.14675 15.7135 4.058 15.7495 3.9525 15.75H3.77925ZM12.456 8.25C11.624 8.25 10.917 7.959 10.335 7.377C9.7525 6.7945 9.46125 6.08375 9.46125 5.24475C9.46125 4.41525 9.752 3.70875 10.3335 3.12525C10.915 2.54175 11.6262 2.25 12.4672 2.25C13.2987 2.25 14.0058 2.54125 14.5883 3.12375C15.1707 3.70575 15.462 4.4145 15.462 5.25C15.462 6.0855 15.1688 6.7945 14.5823 7.377C13.9958 7.9595 13.2875 8.2505 12.456 8.25ZM4.87875 12.462C5.11175 12.462 5.30875 12.3802 5.46975 12.2167C5.63125 12.0532 5.712 11.8547 5.712 11.6213C5.712 11.3883 5.63025 11.1912 5.46675 11.0302C5.30325 10.8687 5.105 10.788 4.872 10.788C4.6385 10.788 4.441 10.8698 4.2795 11.0333C4.119 11.1968 4.03875 11.395 4.03875 11.628C4.03875 11.8615 4.12025 12.059 4.28325 12.2205C4.44675 12.3815 4.64525 12.462 4.87875 12.462ZM10.1287 12.462C10.3617 12.462 10.5588 12.3802 10.7198 12.2167C10.8813 12.0532 10.962 11.8547 10.962 11.6213C10.962 11.3883 10.8802 11.1912 10.7167 11.0302C10.5532 10.8687 10.355 10.788 10.122 10.788C9.8885 10.788 9.691 10.8698 9.5295 11.0333C9.369 11.1968 9.28875 11.395 9.28875 11.628C9.28875 11.8615 9.37025 12.059 9.53325 12.2205C9.69675 12.3815 9.895 12.462 10.128 12.462" fill="#595959"/>
</svg>
