<svg width="21" height="21" viewBox="0 0 21 21" fill="none" xmlns="http://www.w3.org/2000/svg">
<path d="M4.79564 2.17383C4.21451 2.17383 3.65719 2.40468 3.24627 2.8156C2.83535 3.22652 2.60449 3.78385 2.60449 4.36498V8.41018C2.60449 8.69793 2.66117 8.98286 2.77128 9.2487C2.8814 9.51454 3.0428 9.7561 3.24627 9.95956C3.65719 10.3705 4.21451 10.6013 4.79564 10.6013H7.15535C7.73648 10.6013 8.29381 10.3705 8.70473 9.95956C9.11565 9.54864 9.3465 8.99131 9.3465 8.41018V4.36498C9.3465 3.78385 9.11565 3.22652 8.70473 2.8156C8.29381 2.40468 7.73648 2.17383 7.15535 2.17383H4.79564ZM4.79564 12.2868C4.21451 12.2868 3.65719 12.5177 3.24627 12.9286C2.83535 13.3395 2.60449 13.8969 2.60449 14.478V16.8377C2.60449 17.4188 2.83535 17.9762 3.24627 18.3871C3.65719 18.798 4.21451 19.0288 4.79564 19.0288H7.15535C7.73648 19.0288 8.29381 18.798 8.70473 18.3871C9.11565 17.9762 9.3465 17.4188 9.3465 16.8377V14.478C9.3465 13.8969 9.11565 13.3395 8.70473 12.9286C8.29381 12.5177 7.73648 12.2868 7.15535 12.2868H4.79564ZM13.2232 2.17383C12.642 2.17383 12.0847 2.40468 11.6738 2.8156C11.2629 3.22652 11.032 3.78385 11.032 4.36498V6.72468C11.032 7.30581 11.2629 7.86314 11.6738 8.27406C12.0847 8.68498 12.642 8.91584 13.2232 8.91584H15.5829C15.8706 8.91584 16.1555 8.85916 16.4214 8.74904C16.6872 8.63893 16.9288 8.47753 17.1322 8.27406C17.3357 8.07059 17.4971 7.82904 17.6072 7.5632C17.7173 7.29736 17.774 7.01243 17.774 6.72468V4.36498C17.774 4.07723 17.7173 3.79231 17.6072 3.52646C17.4971 3.26062 17.3357 3.01907 17.1322 2.8156C16.9288 2.61213 16.6872 2.45074 16.4214 2.34062C16.1555 2.2305 15.8706 2.17383 15.5829 2.17383H13.2232ZM13.2232 10.6013C12.642 10.6013 12.0847 10.8322 11.6738 11.2431C11.2629 11.654 11.032 12.2114 11.032 12.7925V16.8377C11.032 17.4188 11.2629 17.9762 11.6738 18.3871C12.0847 18.798 12.642 19.0288 13.2232 19.0288H15.5829C15.8706 19.0288 16.1555 18.9722 16.4214 18.8621C16.6872 18.7519 16.9288 18.5905 17.1322 18.3871C17.3357 18.1836 17.4971 17.9421 17.6072 17.6762C17.7173 17.4104 17.774 17.1254 17.774 16.8377V12.7925C17.774 12.5047 17.7173 12.2198 17.6072 11.954C17.4971 11.6881 17.3357 11.4466 17.1322 11.2431C16.9288 11.0396 16.6872 10.8782 16.4214 10.7681C16.1555 10.658 15.8706 10.6013 15.5829 10.6013H13.2232Z" fill="white"/>
</svg>
