<svg width="20" height="20" viewBox="0 0 20 20" fill="none" xmlns="http://www.w3.org/2000/svg">
<path d="M4.66667 1.66699C4.09203 1.66699 3.54093 1.89527 3.1346 2.30159C2.72827 2.70792 2.5 3.25902 2.5 3.83366V7.83366C2.5 8.11819 2.55604 8.39993 2.66493 8.66281C2.77381 8.92568 2.93341 9.16453 3.1346 9.36572C3.54093 9.77205 4.09203 10.0003 4.66667 10.0003H7C7.57464 10.0003 8.12574 9.77205 8.53206 9.36572C8.93839 8.95939 9.16667 8.40829 9.16667 7.83366V3.83366C9.16667 3.25902 8.93839 2.70792 8.53206 2.30159C8.12574 1.89527 7.57464 1.66699 7 1.66699H4.66667ZM4.66667 11.667C4.09203 11.667 3.54093 11.8953 3.1346 12.3016C2.72827 12.7079 2.5 13.259 2.5 13.8337V16.167C2.5 16.7416 2.72827 17.2927 3.1346 17.6991C3.54093 18.1054 4.09203 18.3337 4.66667 18.3337H7C7.57464 18.3337 8.12574 18.1054 8.53206 17.6991C8.93839 17.2927 9.16667 16.7416 9.16667 16.167V13.8337C9.16667 13.259 8.93839 12.7079 8.53206 12.3016C8.12574 11.8953 7.57464 11.667 7 11.667H4.66667ZM13 1.66699C12.4254 1.66699 11.8743 1.89527 11.4679 2.30159C11.0616 2.70792 10.8333 3.25902 10.8333 3.83366V6.16699C10.8333 6.74163 11.0616 7.29273 11.4679 7.69906C11.8743 8.10539 12.4254 8.33366 13 8.33366H15.3333C15.6179 8.33366 15.8996 8.27762 16.1625 8.16873C16.4254 8.05985 16.6642 7.90025 16.8654 7.69906C17.0666 7.49786 17.2262 7.25901 17.3351 6.99614C17.444 6.73327 17.5 6.45152 17.5 6.16699V3.83366C17.5 3.54913 17.444 3.26738 17.3351 3.00451C17.2262 2.74164 17.0666 2.50279 16.8654 2.30159C16.6642 2.1004 16.4254 1.94081 16.1625 1.83192C15.8996 1.72303 15.6179 1.66699 15.3333 1.66699H13ZM13 10.0003C12.4254 10.0003 11.8743 10.2286 11.4679 10.6349C11.0616 11.0413 10.8333 11.5924 10.8333 12.167V16.167C10.8333 16.7416 11.0616 17.2927 11.4679 17.6991C11.8743 18.1054 12.4254 18.3337 13 18.3337H15.3333C15.6179 18.3337 15.8996 18.2776 16.1625 18.1687C16.4254 18.0598 16.6642 17.9002 16.8654 17.6991C17.0666 17.4979 17.2262 17.259 17.3351 16.9961C17.444 16.7333 17.5 16.4515 17.5 16.167V12.167C17.5 11.8825 17.444 11.6007 17.3351 11.3378C17.2262 11.075 17.0666 10.8361 16.8654 10.6349C16.6642 10.4337 16.4254 10.2741 16.1625 10.1653C15.8996 10.0564 15.6179 10.0003 15.3333 10.0003H13Z" fill="#553A6B"/>
</svg>
