<svg width="26" height="26" viewBox="0 0 26 26" fill="none" xmlns="http://www.w3.org/2000/svg">
<path fill-rule="evenodd" clip-rule="evenodd" d="M8.51041 5.71704C8.51041 5.49607 10.7939 3.94727 13.0613 3.94727C15.3286 3.94727 17.6121 5.49607 17.6121 5.71704C17.6121 6.50586 17.5282 6.97308 17.4574 7.22742C17.4104 7.39429 17.2541 7.48682 17.0807 7.48682H9.04185C8.86842 7.48682 8.71217 7.39429 8.66514 7.22742C8.59435 6.97308 8.51041 6.50586 8.51041 5.71704ZM12.3028 5.46422C12.1687 5.46422 12.0401 5.51749 11.9452 5.61232C11.8504 5.70715 11.7971 5.83576 11.7971 5.96987C11.7971 6.10398 11.8504 6.23259 11.9452 6.32742C12.0401 6.42225 12.1687 6.47552 12.3028 6.47552H13.8197C13.9539 6.47552 14.0825 6.42225 14.1773 6.32742C14.2721 6.23259 14.3254 6.10398 14.3254 5.96987C14.3254 5.83576 14.2721 5.70715 14.1773 5.61232C14.0825 5.51749 13.9539 5.46422 13.8197 5.46422H12.3028ZM9.03528 10.631C7.35146 10.1101 7.77621 9.17974 8.41839 8.49812H17.8447C18.3585 9.15446 18.634 10.0399 17.0812 10.5698C17.098 10.7198 17.1065 10.872 17.1065 11.0264C17.1063 11.5741 16.9948 12.1161 16.7789 12.6195C16.5629 13.1229 16.247 13.5772 15.8502 13.9549C15.4535 14.3325 14.9841 14.6256 14.4707 14.8165C13.9573 15.0073 13.4104 15.0919 12.8633 15.0651C12.3162 15.0383 11.7803 14.9007 11.288 14.6606C10.7956 14.4204 10.3572 14.0828 9.99927 13.6682C9.64132 13.2536 9.37131 12.7706 9.20561 12.2485C9.0399 11.7264 8.98196 11.1761 9.03528 10.631ZM12.9237 11.0264C14.2597 11.0264 15.2952 10.9556 16.0891 10.8322C16.0932 10.8963 16.0952 10.961 16.0952 11.0264C16.0948 11.4313 16.0134 11.832 15.8558 12.2049C15.6981 12.5779 15.4674 12.9155 15.1772 13.1979C14.8871 13.4803 14.5433 13.7018 14.1662 13.8492C13.7892 13.9967 13.3864 14.0672 12.9816 14.0565C12.5768 14.0459 12.1783 13.9544 11.8095 13.7873C11.4407 13.6203 11.109 13.3811 10.8341 13.0838C10.5591 12.7866 10.3465 12.4373 10.2086 12.0566C10.0708 11.6759 10.0105 11.2715 10.0314 10.8671C10.7712 10.9692 11.7193 11.0264 12.9237 11.0264ZM17.3173 18.4089C16.86 17.6952 16.2305 17.1081 15.4867 16.7017C14.743 16.2952 13.9089 16.0824 13.0613 16.0829C12.2133 16.0822 11.3789 16.2951 10.6348 16.7017C9.89074 17.1084 9.26102 17.6958 8.80369 18.4099C8.63358 18.1488 8.37301 17.9597 8.07202 17.879L7.0951 17.6175C6.7713 17.5307 6.42628 17.5761 6.13592 17.7436C5.84556 17.9112 5.63365 18.1872 5.5468 18.511L5.15441 19.9764C5.11144 20.1368 5.10047 20.304 5.12214 20.4686C5.14381 20.6332 5.1977 20.7919 5.28071 20.9357C5.36373 21.0795 5.47425 21.2055 5.60597 21.3066C5.7377 21.4076 5.88803 21.4817 6.0484 21.5247L7.02481 21.7866C7.18908 21.8306 7.36053 21.841 7.52891 21.8172C7.69729 21.7934 7.85914 21.7359 8.00476 21.6481C8.00517 21.7822 8.05883 21.9106 8.15394 22.0052C8.24905 22.0997 8.37783 22.1526 8.51193 22.1522C8.64604 22.1518 8.77449 22.0981 8.86904 22.003C8.96358 21.9079 9.01647 21.7791 9.01607 21.645V21.1394C9.01607 20.9466 9.02921 20.7573 9.05551 20.5715L11.6869 21.2769C11.8091 21.5384 12.0032 21.7596 12.2467 21.9145C12.4901 22.0695 12.7727 22.1518 13.0613 22.1518C13.3498 22.1518 13.6324 22.0695 13.8759 21.9145C14.1193 21.7596 14.3135 21.5384 14.4356 21.2769L17.067 20.5715C17.093 20.7573 17.1061 20.9466 17.1065 21.1394V21.645C17.1058 21.7791 17.1584 21.908 17.2528 22.0033C17.3471 22.0986 17.4755 22.1525 17.6096 22.1532C17.7437 22.1539 17.8726 22.1013 17.9679 22.0069C18.0632 21.9125 18.1171 21.7842 18.1178 21.6501C18.4009 21.82 18.7508 21.8792 19.0952 21.7866L20.0721 21.5252C20.2325 21.4822 20.3828 21.4081 20.5145 21.3071C20.6463 21.206 20.7568 21.08 20.8398 20.9362C20.9228 20.7924 20.9767 20.6337 20.9984 20.4691C21.02 20.3045 21.0091 20.1373 20.9661 19.9769L20.5732 18.5115C20.4864 18.1877 20.2744 17.9117 19.9841 17.7441C19.6937 17.5766 19.3487 17.5312 19.0249 17.618L18.048 17.8795C17.7477 17.9599 17.4876 18.1487 17.3173 18.4089ZM9.32097 19.5951C9.59428 18.9347 10.0375 18.3583 10.6056 17.9246C11.1737 17.4908 11.8465 17.2152 12.5556 17.1255V19.2033C12.3289 19.2834 12.1244 19.4163 11.9591 19.591C11.7938 19.7657 11.6725 19.9771 11.605 20.208L9.32097 19.5951ZM16.8016 19.5951C16.5283 18.9347 16.085 18.3583 15.5169 17.9246C14.9488 17.4908 14.276 17.2152 13.5669 17.1255V19.2033C14.024 19.3651 14.381 19.7392 14.5175 20.208L16.8016 19.5951ZM13.0613 21.1394C13.1954 21.1394 13.324 21.0861 13.4188 20.9913C13.5136 20.8965 13.5669 20.7678 13.5669 20.6337C13.5669 20.4996 13.5136 20.371 13.4188 20.2762C13.324 20.1814 13.1954 20.1281 13.0613 20.1281C12.9272 20.1281 12.7985 20.1814 12.7037 20.2762C12.6089 20.371 12.5556 20.4996 12.5556 20.6337C12.5556 20.7678 12.6089 20.8965 12.7037 20.9913C12.7985 21.0861 12.9272 21.1394 13.0613 21.1394Z" fill="#553A6B"/>
</svg>
