<svg width="93" height="94" viewBox="0 0 93 94" fill="none" xmlns="http://www.w3.org/2000/svg">
<path d="M92.4 46.9998C92.4 72.5154 71.7156 93.1998 46.2 93.1998C20.6844 93.1998 0 72.5154 0 46.9998C0 21.4843 20.6844 0.799805 46.2 0.799805C71.7156 0.799805 92.4 21.4843 92.4 46.9998Z" fill="#D9D9D9"/>
<path d="M51.9765 30.9951C52.8368 30.9948 53.6654 31.3198 54.2963 31.9047C54.9271 32.4897 55.3135 33.2915 55.378 34.1494L55.3865 34.4051C55.3866 34.8227 55.5399 35.2258 55.8174 35.5379C56.0949 35.8499 56.4773 36.0493 56.892 36.0982L57.0915 36.1101H58.7965C60.1012 36.11 61.3566 36.6085 62.3059 37.5036C63.2551 38.3986 63.8265 39.6226 63.903 40.925L63.9115 41.2251V56.5701C63.9116 57.8748 63.4131 59.1302 62.5181 60.0795C61.623 61.0287 60.399 61.6001 59.0966 61.6766L58.7965 61.6851H34.9265C33.6218 61.6852 32.3664 61.1867 31.4172 60.2916C30.4679 59.3966 29.8966 58.1726 29.82 56.8702L29.8115 56.5701V41.2251C29.8115 39.9204 30.3099 38.665 31.205 37.7158C32.1 36.7665 33.324 36.1952 34.6264 36.1186L34.9265 36.1101H36.6315C37.0837 36.1101 37.5174 35.9305 37.8371 35.6107C38.1569 35.291 38.3365 34.8573 38.3365 34.4051C38.3363 33.5448 38.6612 32.7162 39.2461 32.0854C39.8311 31.4546 40.6329 31.0682 41.4908 31.0036L41.7465 30.9951H51.9765ZM46.8615 42.9301C45.594 42.93 44.3716 43.4005 43.4313 44.2504C42.491 45.1004 41.8997 46.2691 41.7721 47.5302L41.7533 47.7894L41.7465 48.0451L41.7533 48.3009C41.8034 49.3004 42.1455 50.2633 42.7374 51.0703C43.3293 51.8773 44.1449 52.4929 45.0832 52.8409C46.0216 53.1889 47.0414 53.254 48.0163 53.0282C48.9913 52.8023 49.8786 52.2954 50.5683 51.5702C51.258 50.8451 51.7198 49.9335 51.8965 48.9485C52.0733 47.9634 51.9572 46.9482 51.5626 46.0285C51.1681 45.1087 50.5124 44.325 49.6767 43.7743C48.8411 43.2235 47.8623 42.93 46.8615 42.9301Z" fill="black" fill-opacity="0.23"/>
</svg>
