<svg width="21" height="21" viewBox="0 0 21 21" fill="none" xmlns="http://www.w3.org/2000/svg">
<path d="M10.1111 2.78711C5.47597 2.78711 1.68359 5.82101 1.68359 9.52912C1.68359 11.2989 2.52634 12.9844 4.0433 14.1642C4.0433 14.6699 3.7062 16.0183 1.68359 17.9566C1.68359 17.9566 4.63322 17.9566 7.16147 15.8498C8.0885 16.1026 9.0998 16.2711 10.1111 16.2711C14.7462 16.2711 18.5386 13.2372 18.5386 9.52912C18.5386 5.82101 14.7462 2.78711 10.1111 2.78711ZM10.9539 12.9001H9.26835V11.2146H10.9539V12.9001ZM12.4708 8.68637C12.218 9.02347 11.8809 9.19202 11.5438 9.36057C11.291 9.52912 11.2067 9.61339 11.1224 9.78194C10.9539 9.95049 10.9539 10.119 10.9539 10.3719H9.26835C9.26835 9.95049 9.35263 9.69767 9.52118 9.44484C9.68973 9.27629 10.0268 9.02347 10.4482 8.77064C10.701 8.68637 10.8696 8.51782 10.9539 8.34927C11.0381 8.18072 11.1224 7.92789 11.1224 7.75934C11.1224 7.50652 11.0381 7.33796 10.8696 7.16941C10.701 7.00086 10.4482 6.91659 10.1954 6.91659C9.94255 6.91659 9.774 7.00086 9.60545 7.08514C9.4369 7.16941 9.35263 7.33796 9.35263 7.59079H7.66713C7.7514 7.00086 8.00423 6.49521 8.4256 6.15811C8.84698 5.82101 9.4369 5.73674 10.1954 5.73674C10.9539 5.73674 11.6281 5.90529 12.0494 6.24239C12.4708 6.57949 12.7236 7.08514 12.7236 7.67507C12.8079 8.01217 12.7236 8.34927 12.4708 8.68637Z" fill="#553A6B"/>
</svg>
