<svg width="20" height="20" viewBox="0 0 20 20" fill="none" xmlns="http://www.w3.org/2000/svg">
<g clip-path="url(#clip0_1377_3383)">
<path d="M15.8337 4L12.5003 0.666667M15.8337 4L12.5003 7.33333M15.8337 4H7.50033M11.667 11.5C10.6821 11.5 9.70681 11.306 8.79687 10.9291C7.88692 10.5522 7.06013 9.99974 6.36369 9.3033C5.66725 8.60686 5.11481 7.78007 4.7379 6.87013C4.36099 5.96018 4.16699 4.98491 4.16699 4C4.16699 3.01509 4.36099 2.03982 4.7379 1.12987C5.11481 0.219932 5.66725 -0.606862 6.36369 -1.3033C7.06013 -1.99974 7.88692 -2.55219 8.79687 -2.9291C9.70681 -3.30601 10.6821 -3.5 11.667 -3.5" stroke="white" stroke-width="2" stroke-linecap="round" stroke-linejoin="round"/>
</g>
<defs>
<clipPath id="clip0_1377_3383">
<rect width="20" height="20" fill="white"/>
</clipPath>
</defs>
</svg>
