<svg width="21" height="22" viewBox="0 0 21 22" fill="none" xmlns="http://www.w3.org/2000/svg">
<g clip-path="url(#clip0_3255_1080)">
<path d="M16.0114 4.9666L12.6404 1.59559M16.0114 4.9666L12.6404 8.3376M16.0114 4.9666H7.58389M11.7976 12.5514C10.8016 12.5514 9.81531 12.3552 8.89509 11.974C7.97486 11.5928 7.13873 11.0341 6.43442 10.3298C5.7301 9.62552 5.17142 8.78938 4.79025 7.86916C4.40908 6.94893 4.21289 5.96264 4.21289 4.9666C4.21289 3.97055 4.40908 2.98426 4.79025 2.06403C5.17142 1.14381 5.7301 0.30767 6.43442 -0.39664C7.13873 -1.10095 7.97486 -1.65964 8.89509 -2.04081C9.81531 -2.42198 10.8016 -2.61816 11.7976 -2.61816" stroke="#737373" stroke-width="2.0226" stroke-linecap="round" stroke-linejoin="round"/>
</g>
<defs>
<clipPath id="clip0_3255_1080">
<rect width="20.226" height="20.226" fill="white" transform="translate(0 0.920898)"/>
</clipPath>
</defs>
</svg>
