<svg width="17" height="18" viewBox="0 0 17 18" fill="none" xmlns="http://www.w3.org/2000/svg">
<g clip-path="url(#clip0_2929_5373)">
<path d="M16.8426 16.5955C16.9477 16.7007 17.0003 16.8252 17.0003 16.9691C17.0003 17.1129 16.9477 17.2374 16.8426 17.3426C16.7374 17.4477 16.6129 17.5003 16.4691 17.5003C16.3252 17.5003 16.2007 17.4477 16.0955 17.3426L9.57941 10.8348C9.05369 11.2775 8.47264 11.6123 7.83625 11.8392C7.19985 12.0661 6.53579 12.1823 5.84406 12.1878C5.30727 12.1878 4.78986 12.1186 4.29181 11.9803C3.79376 11.8419 3.32892 11.6455 2.89728 11.3909C2.46564 11.1364 2.06997 10.832 1.71027 10.4778C1.35057 10.1237 1.04621 9.73078 0.797182 9.29914C0.548159 8.86749 0.351707 8.39988 0.207827 7.8963C0.0639468 7.39272 -0.00522642 6.87531 0.000307436 6.34406C0.000307436 5.80727 0.0694806 5.28986 0.207827 4.79181C0.346173 4.29376 0.542625 3.82892 0.797182 3.39728C1.05174 2.96564 1.3561 2.56997 1.71027 2.21027C2.06444 1.85057 2.45734 1.54621 2.88898 1.29718C3.32062 1.04816 3.78823 0.851707 4.29181 0.707827C4.79539 0.563947 5.31281 0.494774 5.84406 0.500307C6.38084 0.500307 6.89826 0.569481 7.3963 0.707827C7.89435 0.846173 8.35919 1.04263 8.79083 1.29718C9.22248 1.55174 9.61815 1.8561 9.97785 2.21027C10.3375 2.56444 10.6419 2.95734 10.8909 3.38898C11.14 3.82062 11.3364 4.28823 11.4803 4.79181C11.6242 5.29539 11.6933 5.81281 11.6878 6.34406C11.6878 7.03026 11.5744 7.69155 11.3475 8.32794C11.1206 8.96434 10.783 9.54816 10.3348 10.0794L16.8426 16.5955ZM6.37531 9.00031H5.31281V10.0628H6.37531V9.00031ZM6.44171 7.93781C6.44171 7.77179 6.49429 7.62238 6.59943 7.48957C6.70457 7.35675 6.83462 7.22671 6.98957 7.09943C7.14451 6.97215 7.31606 6.83934 7.50421 6.70099C7.69236 6.56264 7.86115 6.4077 8.01056 6.23615C8.15998 6.0646 8.29279 5.87091 8.409 5.65509C8.52521 5.43927 8.57778 5.18472 8.56671 4.89142C8.56671 4.53172 8.48647 4.20799 8.32599 3.92023C8.16551 3.63247 7.95799 3.38898 7.70343 3.18976C7.44888 2.99054 7.15835 2.83559 6.83185 2.72492C6.50535 2.61424 6.17609 2.5589 5.84406 2.5589C5.51756 2.5589 5.19383 2.60317 4.87287 2.69171C4.5519 2.78026 4.25861 2.9186 3.99298 3.10675C3.72736 3.2949 3.51707 3.52179 3.36212 3.78742C3.20718 4.05304 3.12694 4.37401 3.1214 4.75031H4.31671C4.31671 4.56769 4.36652 4.41274 4.46613 4.28546C4.56574 4.15819 4.69578 4.05581 4.85626 3.97833C5.01675 3.90086 5.18276 3.84276 5.35431 3.80402C5.52586 3.76528 5.68911 3.74868 5.84406 3.75421C6.00454 3.75421 6.17332 3.77912 6.35041 3.82892C6.52749 3.87873 6.6935 3.95067 6.84845 4.04474C7.0034 4.13882 7.12791 4.25503 7.22199 4.39337C7.31606 4.53172 7.36587 4.69774 7.3714 4.89142C7.3714 5.05744 7.31883 5.20685 7.21369 5.33966C7.10854 5.47248 6.9785 5.60252 6.82355 5.7298C6.6686 5.85708 6.49705 5.98989 6.3089 6.12824C6.12075 6.26658 5.95197 6.42153 5.80255 6.59308C5.65314 6.76463 5.52033 6.95832 5.40412 7.17414C5.28791 7.38996 5.23533 7.64451 5.2464 7.93781H6.44171Z" fill="white"/>
</g>
<defs>
<clipPath id="clip0_2929_5373">
<rect width="17" height="17" fill="white" transform="translate(0 0.5)"/>
</clipPath>
</defs>
</svg>
