<svg width="16" height="15" viewBox="0 0 16 15" fill="none" xmlns="http://www.w3.org/2000/svg">
<path d="M16 0V11H5.5L2 14.5V11H0V0H16ZM8 9H7V10H8V9ZM8.0625 7.67969C8.0625 7.48698 8.08073 7.30469 8.11719 7.13281C8.15365 6.96094 8.2474 6.79948 8.39844 6.64844C8.60156 6.44531 8.80208 6.2526 9 6.07031C9.19792 5.88802 9.375 5.69271 9.53125 5.48438C9.6875 5.27604 9.8151 5.05469 9.91406 4.82031C10.013 4.58594 10.0625 4.3125 10.0625 4C10.0625 3.64583 9.99479 3.3151 9.85938 3.00781C9.72396 2.70052 9.54167 2.42969 9.3125 2.19531C9.08333 1.96094 8.8125 1.77604 8.5 1.64062C8.1875 1.50521 7.85417 1.4375 7.5 1.4375C7.14583 1.4375 6.8151 1.50521 6.50781 1.64062C6.20052 1.77604 5.92969 1.95833 5.69531 2.1875C5.46094 2.41667 5.27604 2.6875 5.14062 3C5.00521 3.3125 4.9375 3.64583 4.9375 4H6.0625C6.0625 3.80208 6.09896 3.61719 6.17188 3.44531C6.24479 3.27344 6.34896 3.11979 6.48438 2.98438C6.61979 2.84896 6.77083 2.7474 6.9375 2.67969C7.10417 2.61198 7.29167 2.57292 7.5 2.5625C7.69792 2.5625 7.88281 2.59896 8.05469 2.67188C8.22656 2.74479 8.38021 2.84896 8.51562 2.98438C8.65104 3.11979 8.7526 3.27083 8.82031 3.4375C8.88802 3.60417 8.92708 3.79167 8.9375 4C8.9375 4.21354 8.88802 4.40365 8.78906 4.57031C8.6901 4.73698 8.56771 4.89583 8.42188 5.04688C8.27604 5.19792 8.11458 5.35417 7.9375 5.51562C7.76042 5.67708 7.60156 5.84896 7.46094 6.03125C7.32031 6.21354 7.19531 6.42448 7.08594 6.66406C6.97656 6.90365 6.92708 7.18229 6.9375 7.5V8H8.0625V7.67969Z" fill="white"/>
</svg>
