<svg width="50" height="50" viewBox="0 0 50 50" fill="none" xmlns="http://www.w3.org/2000/svg">
<circle cx="25" cy="25" r="25" fill="#6746A3"/>
<path d="M26.5 28C26.5 28.3978 26.342 28.7794 26.0607 29.0607C25.7794 29.342 25.3978 29.5 25 29.5C24.6022 29.5 24.2206 29.342 23.9393 29.0607C23.658 28.7794 23.5 28.3978 23.5 28C23.5 27.6022 23.658 27.2206 23.9393 26.9393C24.2206 26.658 24.6022 26.5 25 26.5C25.3978 26.5 25.7794 26.658 26.0607 26.9393C26.342 27.2206 26.5 27.6022 26.5 28Z" fill="white"/>
<path d="M27.347 12.6602L30.527 17.1162L32.624 16.4012L34.538 22.0002H35.5V34.0002H14.5V22.0002H15.01V21.9902L15.658 21.9962L27.347 12.6602ZM22.397 22.0002H32.425L31.388 18.9672L29.866 19.4542L22.397 22.0002ZM20.839 20.4172L28.55 17.7902L26.946 15.5402L20.839 20.4172ZM18.5 24.0002H16.5V26.0002C17.0304 26.0002 17.5391 25.7894 17.9142 25.4144C18.2893 25.0393 18.5 24.5306 18.5 24.0002ZM28.5 28.0002C28.5 27.5405 28.4095 27.0854 28.2336 26.6608C28.0577 26.2361 27.7999 25.8503 27.4749 25.5253C27.1499 25.2003 26.764 24.9425 26.3394 24.7666C25.9148 24.5907 25.4596 24.5002 25 24.5002C24.5404 24.5002 24.0852 24.5907 23.6606 24.7666C23.236 24.9425 22.8501 25.2003 22.5251 25.5253C22.2001 25.8503 21.9423 26.2361 21.7664 26.6608C21.5905 27.0854 21.5 27.5405 21.5 28.0002C21.5 28.9284 21.8687 29.8187 22.5251 30.475C23.1815 31.1314 24.0717 31.5002 25 31.5002C25.9283 31.5002 26.8185 31.1314 27.4749 30.475C28.1313 29.8187 28.5 28.9284 28.5 28.0002ZM33.5 32.0002V30.0002C32.9696 30.0002 32.4609 30.2109 32.0858 30.5859C31.7107 30.961 31.5 31.4697 31.5 32.0002H33.5ZM31.5 24.0002C31.5 24.5306 31.7107 25.0393 32.0858 25.4144C32.4609 25.7894 32.9696 26.0002 33.5 26.0002V24.0002H31.5ZM16.5 32.0002H18.5C18.5 31.4697 18.2893 30.961 17.9142 30.5859C17.5391 30.2109 17.0304 30.0002 16.5 30.0002V32.0002Z" fill="white"/>
</svg>
