<svg width="18" height="16" viewBox="0 0 18 16" fill="none" xmlns="http://www.w3.org/2000/svg">
<path d="M17.1056 0.349609V11.4739H6.48696L2.94741 15.0135V11.4739H0.924805V0.349609H17.1056ZM9.01521 9.45132H8.00391V10.4626H9.01521V9.45132ZM9.07842 8.11609C9.07842 7.9212 9.09686 7.73685 9.13373 7.56303C9.1706 7.38921 9.26541 7.22593 9.41815 7.07318C9.62358 6.86776 9.82636 6.67288 10.0265 6.48852C10.2267 6.30417 10.4058 6.10665 10.5638 5.89596C10.7218 5.68528 10.8508 5.46142 10.9509 5.2244C11.051 4.98737 11.101 4.71085 11.101 4.39481C11.101 4.03665 11.0325 3.70218 10.8956 3.39141C10.7587 3.08065 10.5743 2.80676 10.3425 2.56973C10.1108 2.33271 9.8369 2.14572 9.52086 2.00878C9.20483 1.87183 8.86773 1.80335 8.50956 1.80335C8.15139 1.80335 7.81693 1.87183 7.50616 2.00878C7.1954 2.14572 6.9215 2.33007 6.68448 2.56183C6.44746 2.79359 6.26047 3.06748 6.12352 3.38351C5.98658 3.69954 5.9181 4.03665 5.9181 4.39481H7.05582C7.05582 4.19466 7.09269 4.00768 7.16643 3.83386C7.24017 3.66004 7.34551 3.50466 7.48246 3.36771C7.61941 3.23076 7.77216 3.12805 7.94071 3.05958C8.10926 2.99111 8.29888 2.9516 8.50956 2.94107C8.70972 2.94107 8.8967 2.97794 9.07052 3.05168C9.24434 3.12542 9.39972 3.23076 9.53667 3.36771C9.67361 3.50466 9.77632 3.65741 9.8448 3.82596C9.91327 3.99451 9.95277 4.18413 9.96331 4.39481C9.96331 4.61077 9.91327 4.80302 9.81319 4.97157C9.71312 5.14012 9.58934 5.30077 9.44186 5.45352C9.29438 5.60627 9.13109 5.76429 8.95201 5.92757C8.77292 6.09085 8.61227 6.26467 8.47006 6.44902C8.32785 6.63337 8.20143 6.84669 8.09082 7.08898C7.98021 7.33128 7.93017 7.61307 7.94071 7.93437V8.44002H9.07842V8.11609Z" fill="#553A6B"/>
</svg>
