<svg width="19" height="18" viewBox="0 0 19 18" fill="none" xmlns="http://www.w3.org/2000/svg">
<path d="M17.9978 16.7911C18.1041 16.8974 18.1573 17.0233 18.1573 17.1689C18.1573 17.3144 18.1041 17.4403 17.9978 17.5466C17.8914 17.6529 17.7655 17.7061 17.62 17.7061C17.4745 17.7061 17.3486 17.6529 17.2423 17.5466L10.6525 10.9652C10.1209 11.413 9.53323 11.7515 8.88965 11.981C8.24606 12.2104 7.5745 12.328 6.87495 12.3336C6.3321 12.3336 5.80883 12.2636 5.30516 12.1237C4.80148 11.9838 4.33139 11.7851 3.89487 11.5277C3.45835 11.2703 3.05821 10.9625 2.69444 10.6043C2.33067 10.2461 2.02287 9.84877 1.77104 9.41225C1.5192 8.97573 1.32053 8.50284 1.17502 7.99356C1.02951 7.48429 0.959558 6.96103 0.965155 6.42378C0.965155 5.88093 1.03511 5.35766 1.17502 4.85399C1.31493 4.35031 1.5136 3.88021 1.77104 3.4437C2.02847 3.00718 2.33627 2.60703 2.69444 2.24327C3.05261 1.8795 3.44995 1.5717 3.88647 1.31986C4.32299 1.06803 4.79589 0.869354 5.30516 0.723848C5.81443 0.578341 6.33769 0.508386 6.87495 0.513983C7.4178 0.513983 7.94106 0.583938 8.44474 0.723848C8.94841 0.863757 9.41851 1.06243 9.85503 1.31986C10.2915 1.5773 10.6917 1.8851 11.0555 2.24327C11.4192 2.60144 11.727 2.99878 11.9789 3.4353C12.2307 3.87182 12.4294 4.34471 12.5749 4.85399C12.7204 5.36326 12.7903 5.88652 12.7847 6.42378C12.7847 7.11773 12.67 7.7865 12.4406 8.43008C12.2111 9.07367 11.8697 9.66409 11.4164 10.2013L17.9978 16.7911ZM7.4122 9.11004H6.33769V10.1846H7.4122V9.11004ZM7.47936 8.03554C7.47936 7.86765 7.53252 7.71654 7.63885 7.58223C7.74519 7.44792 7.8767 7.3164 8.0334 7.18768C8.1901 7.05897 8.36359 6.92465 8.55387 6.78474C8.74414 6.64483 8.91483 6.48813 9.06594 6.31465C9.21704 6.14116 9.35135 5.94528 9.46888 5.72702C9.5864 5.50876 9.63957 5.25133 9.62837 4.95472C9.62837 4.59096 9.54723 4.26357 9.38493 3.97255C9.22263 3.68154 9.01277 3.4353 8.75534 3.23383C8.4979 3.03236 8.20409 2.87566 7.8739 2.76373C7.54372 2.65181 7.21073 2.59584 6.87495 2.59584C6.54476 2.59584 6.21737 2.64061 5.89278 2.73015C5.56819 2.8197 5.27158 2.95961 5.00295 3.14988C4.73433 3.34016 4.52166 3.56961 4.36496 3.83824C4.20827 4.10687 4.12712 4.43146 4.12152 4.81201H5.33034C5.33034 4.62733 5.38071 4.47063 5.48144 4.34192C5.58218 4.2132 5.7137 4.10967 5.87599 4.03132C6.03829 3.95297 6.20618 3.89421 6.37967 3.85503C6.55315 3.81586 6.71825 3.79907 6.87495 3.80466C7.03724 3.80466 7.20793 3.82985 7.38702 3.88021C7.5661 3.93058 7.73399 4.00333 7.89069 4.09847C8.04739 4.19361 8.17331 4.31114 8.26845 4.45105C8.36359 4.59096 8.41396 4.75885 8.41955 4.95472C8.41955 5.12261 8.36639 5.27372 8.26005 5.40803C8.15372 5.54234 8.02221 5.67386 7.86551 5.80258C7.70881 5.93129 7.53532 6.06561 7.34504 6.20552C7.15477 6.34543 6.98408 6.50212 6.83297 6.67561C6.68187 6.8491 6.54756 7.04498 6.43003 7.26323C6.31251 7.48149 6.25934 7.73893 6.27054 8.03554H7.47936Z" fill="#553A6B"/>
</svg>
