<svg width="20" height="20" viewBox="0 0 20 20" fill="none" xmlns="http://www.w3.org/2000/svg">
<path fill-rule="evenodd" clip-rule="evenodd" d="M18.1253 9.99961L18.6441 9.73961V9.73711L18.6403 9.73336L18.6328 9.71836L18.6066 9.66836L18.5066 9.48836C18.3846 9.27787 18.2549 9.0719 18.1178 8.87086C17.6605 8.19955 17.1348 7.57747 16.5491 7.01461C15.1416 5.66461 12.9753 4.28711 10.0003 4.28711C7.02785 4.28711 4.86035 5.66336 3.45285 7.01461C2.86717 7.57747 2.34145 8.19955 1.8841 8.87086C1.69852 9.14467 1.52664 9.42752 1.3691 9.71836L1.3616 9.73336L1.3591 9.73711V9.73836C1.3591 9.73836 1.35785 9.73961 1.8766 9.99961L1.35785 9.73836C1.31774 9.81939 1.29687 9.90858 1.29688 9.99898C1.29688 10.0894 1.31774 10.1786 1.35785 10.2596L1.3566 10.2621L1.36035 10.2659L1.36785 10.2809C1.40682 10.359 1.44852 10.4357 1.49285 10.5109C2.0311 11.4201 2.68953 12.2526 3.45035 12.9859C4.8591 14.3359 7.02535 15.7109 10.0003 15.7109C12.9741 15.7109 15.1416 14.3359 16.5503 12.9846C17.1349 12.4211 17.6602 11.7991 18.1178 11.1284C18.2931 10.8703 18.4562 10.6042 18.6066 10.3309L18.6328 10.2809L18.6403 10.2659L18.6428 10.2621V10.2609C18.6428 10.2609 18.6441 10.2596 18.1253 9.99961ZM18.1253 9.99961L18.6441 10.2609C18.6842 10.1798 18.7051 10.0906 18.7051 10.0002C18.7051 9.90982 18.6842 9.82063 18.6441 9.73961L18.1253 9.99961ZM9.92535 8.07961C9.41613 8.07961 8.92777 8.28189 8.5677 8.64196C8.20763 9.00203 8.00535 9.49039 8.00535 9.99961C8.00535 10.5088 8.20763 10.9972 8.5677 11.3573C8.92777 11.7173 9.41613 11.9196 9.92535 11.9196C10.4346 11.9196 10.9229 11.7173 11.283 11.3573C11.6431 10.9972 11.8453 10.5088 11.8453 9.99961C11.8453 9.49039 11.6431 9.00203 11.283 8.64196C10.9229 8.28189 10.4346 8.07961 9.92535 8.07961ZM6.84785 9.99961C6.84785 9.18274 7.17235 8.39933 7.74996 7.82172C8.32757 7.24411 9.11098 6.91961 9.92785 6.91961C10.7447 6.91961 11.5281 7.24411 12.1057 7.82172C12.6833 8.39933 13.0078 9.18274 13.0078 9.99961C13.0078 10.8165 12.6833 11.5999 12.1057 12.1775C11.5281 12.7551 10.7447 13.0796 9.92785 13.0796C9.11098 13.0796 8.32757 12.7551 7.74996 12.1775C7.17235 11.5999 6.84785 10.8165 6.84785 9.99961Z" fill="white"/>
</svg>
