<svg width="20" height="20" viewBox="0 0 20 20" fill="none" xmlns="http://www.w3.org/2000/svg">
<path d="M5.83301 14.9987V9.58203C5.83301 9.25051 5.70131 8.93257 5.46689 8.69815C5.23247 8.46373 4.91453 8.33203 4.58301 8.33203C4.25149 8.33203 3.93354 8.46373 3.69912 8.69815C3.4647 8.93257 3.33301 9.25051 3.33301 9.58203V13.332C3.33301 13.7741 3.5086 14.198 3.82116 14.5105C4.13372 14.8231 4.55765 14.9987 4.99967 14.9987H5.83301ZM5.83301 14.9987V11.6654H14.1663V14.9987M5.83301 14.9987H14.1663M14.1663 14.9987V9.58203C14.1663 9.25051 14.298 8.93257 14.5325 8.69815C14.7669 8.46373 15.0848 8.33203 15.4163 8.33203C15.7479 8.33203 16.0658 8.46373 16.3002 8.69815C16.5346 8.93257 16.6663 9.25051 16.6663 9.58203V13.332C16.6663 13.7741 16.4907 14.198 16.1782 14.5105C15.8656 14.8231 15.4417 14.9987 14.9997 14.9987H14.1663ZM5.83301 18.332H14.1663M12.083 18.332H7.91634V14.9987H12.083V18.332Z" stroke="#191919" stroke-width="1.5" stroke-linecap="round" stroke-linejoin="round"/>
<path d="M15.4163 8.33268V6.66602C15.4163 4.30935 15.4163 3.13018 14.6838 2.39852C13.9522 1.66602 12.773 1.66602 10.4163 1.66602H9.58301C7.22634 1.66602 6.04717 1.66602 5.31551 2.39852C4.58301 3.13018 4.58301 4.30935 4.58301 6.66602V8.33268" stroke="#191919" stroke-width="1.5" stroke-linecap="round" stroke-linejoin="round"/>
</svg>
