<svg width="17" height="18" viewBox="0 0 17 18" fill="none" xmlns="http://www.w3.org/2000/svg">
<path fill-rule="evenodd" clip-rule="evenodd" d="M9.89943 0.793659C9.5911 0.666992 9.19943 0.666992 8.41693 0.666992C7.63443 0.666992 7.2436 0.666992 6.93443 0.793659C6.731 0.87678 6.54602 0.99931 6.39013 1.1542C6.23425 1.30909 6.11053 1.49327 6.0261 1.69616C5.94776 1.88199 5.91776 2.09949 5.90526 2.41533C5.89932 2.64408 5.83532 2.86756 5.71929 3.06479C5.60325 3.26202 5.43899 3.42651 5.24193 3.54283C5.04088 3.65458 4.81488 3.71378 4.58487 3.71495C4.35485 3.71611 4.12826 3.6592 3.9261 3.54949C3.64443 3.40116 3.44026 3.31949 3.2386 3.29283C2.79742 3.23526 2.35132 3.35382 1.99693 3.62283C1.73193 3.82449 1.5361 4.16116 1.14526 4.83366C0.753596 5.50616 0.558596 5.84199 0.51443 6.17116C0.456096 6.60949 0.576096 7.05282 0.847763 7.40366C0.971096 7.56366 1.14526 7.69783 1.41443 7.86616C1.81193 8.11366 2.06693 8.53533 2.06693 9.00033C2.06693 9.46533 1.81193 9.88699 1.41526 10.1337C1.14526 10.3028 0.971096 10.437 0.84693 10.597C0.713235 10.7705 0.615054 10.9687 0.558001 11.1801C0.500948 11.3916 0.486142 11.6123 0.51443 11.8295C0.558596 12.1578 0.753596 12.4945 1.14526 13.167C1.53693 13.8395 1.73193 14.1753 1.99693 14.3778C2.35026 14.647 2.79693 14.7653 3.2386 14.7078C3.44026 14.6812 3.64443 14.5995 3.9261 14.4512C4.12837 14.3413 4.35511 14.2843 4.58529 14.2855C4.81546 14.2866 5.04161 14.3459 5.24276 14.4578C5.64776 14.6912 5.88776 15.1203 5.90526 15.5853C5.91776 15.902 5.94776 16.1187 6.0261 16.3045C6.1961 16.7128 6.52276 17.0378 6.93443 17.207C7.24276 17.3337 7.63443 17.3337 8.41693 17.3337C9.19943 17.3337 9.5911 17.3337 9.89943 17.207C10.1029 17.1239 10.2878 17.0013 10.4437 16.8465C10.5996 16.6916 10.7233 16.5074 10.8078 16.3045C10.8861 16.1187 10.9161 15.902 10.9286 15.5853C10.9453 15.1203 11.1861 14.6903 11.5919 14.4578C11.793 14.3461 12.019 14.2869 12.249 14.2857C12.479 14.2845 12.7056 14.3414 12.9078 14.4512C13.1894 14.5995 13.3936 14.6812 13.5953 14.7078C14.0369 14.7662 14.4836 14.647 14.8369 14.3778C15.1019 14.1762 15.2978 13.8395 15.6886 13.167C16.0803 12.4945 16.2753 12.1587 16.3194 11.8295C16.3476 11.6122 16.3327 11.3915 16.2755 11.1801C16.2183 10.9686 16.1199 10.7704 15.9861 10.597C15.8628 10.437 15.6886 10.3028 15.4194 10.1345C15.0219 9.88699 14.7669 9.46533 14.7669 9.00033C14.7669 8.53533 15.0219 8.11366 15.4186 7.86699C15.6886 7.69783 15.8628 7.56366 15.9869 7.40366C16.1206 7.23015 16.2188 7.03199 16.2759 6.8205C16.3329 6.60902 16.3477 6.38837 16.3194 6.17116C16.2753 5.84282 16.0803 5.50616 15.6886 4.83366C15.2969 4.16116 15.1019 3.82533 14.8369 3.62283C14.4825 3.35382 14.0364 3.23526 13.5953 3.29283C13.3936 3.31949 13.1894 3.40116 12.9078 3.54949C12.7055 3.65935 12.4787 3.71634 12.2486 3.71517C12.0184 3.71401 11.7922 3.65473 11.5911 3.54283C11.3942 3.42641 11.2301 3.26187 11.1142 3.06465C10.9983 2.86743 10.9345 2.644 10.9286 2.41533C10.9161 2.09866 10.8861 1.88199 10.8078 1.69616C10.7233 1.49327 10.5996 1.30909 10.4437 1.1542C10.2878 0.99931 10.1029 0.87678 9.89943 0.793659ZM8.41693 11.5003C9.8086 11.5003 10.9361 10.3812 10.9361 9.00033C10.9361 7.61949 9.80776 6.50033 8.41693 6.50033C7.0261 6.50033 5.89776 7.61949 5.89776 9.00033C5.89776 10.3812 7.0261 11.5003 8.41693 11.5003Z" fill="white"/>
</svg>
