<svg width="21" height="22" viewBox="0 0 21 22" fill="none" xmlns="http://www.w3.org/2000/svg">
<path fill-rule="evenodd" clip-rule="evenodd" d="M12.0428 2.77263C11.7309 2.64453 11.3349 2.64453 10.5435 2.64453C9.75217 2.64453 9.35692 2.64453 9.04426 2.77263C8.83853 2.85669 8.65146 2.9806 8.49381 3.13724C8.33616 3.29388 8.21104 3.48015 8.12566 3.68533C8.04644 3.87326 8.0161 4.09322 8.00346 4.41262C7.99744 4.64396 7.93272 4.86997 7.81538 5.06942C7.69804 5.26888 7.53192 5.43524 7.33263 5.55286C7.12931 5.66588 6.90076 5.72575 6.66814 5.72693C6.43553 5.72811 6.20638 5.67056 6.00192 5.55961C5.71707 5.4096 5.5106 5.32701 5.30665 5.30004C4.86049 5.24183 4.40935 5.36173 4.05096 5.63377C3.78296 5.83771 3.58491 6.17819 3.18966 6.85829C2.79357 7.53839 2.59637 7.87801 2.5517 8.2109C2.49271 8.65419 2.61407 9.10253 2.8888 9.45733C3.01353 9.61914 3.18966 9.75482 3.46187 9.92506C3.86387 10.1754 4.12175 10.6018 4.12175 11.072C4.12175 11.5423 3.86387 11.9687 3.46272 12.2182C3.18966 12.3893 3.01353 12.5249 2.88796 12.6868C2.75275 12.8622 2.65346 13.0626 2.59577 13.2765C2.53807 13.4904 2.52309 13.7135 2.5517 13.9332C2.59637 14.2652 2.79357 14.6057 3.18966 15.2858C3.58576 15.9659 3.78296 16.3055 4.05096 16.5103C4.40828 16.7825 4.86 16.9022 5.30665 16.844C5.5106 16.8171 5.71707 16.7345 6.00192 16.5845C6.20648 16.4734 6.43579 16.4157 6.66856 16.4169C6.90134 16.4181 7.13005 16.4781 7.33347 16.5912C7.74305 16.8272 7.98576 17.2612 8.00346 17.7315C8.0161 18.0517 8.04644 18.2708 8.12566 18.4588C8.29758 18.8717 8.62794 19.2004 9.04426 19.3715C9.35607 19.4995 9.75217 19.4995 10.5435 19.4995C11.3349 19.4995 11.7309 19.4995 12.0428 19.3715C12.2485 19.2874 12.4356 19.1635 12.5932 19.0068C12.7509 18.8502 12.876 18.6639 12.9614 18.4588C13.0406 18.2708 13.0709 18.0517 13.0836 17.7315C13.1004 17.2612 13.344 16.8263 13.7544 16.5912C13.9577 16.4782 14.1863 16.4183 14.4189 16.4172C14.6515 16.416 14.8806 16.4735 15.0851 16.5845C15.3699 16.7345 15.5764 16.8171 15.7804 16.844C16.227 16.903 16.6787 16.7825 17.0361 16.5103C17.3041 16.3064 17.5021 15.9659 17.8974 15.2858C18.2934 14.6057 18.4907 14.2661 18.5353 13.9332C18.5638 13.7135 18.5487 13.4903 18.4909 13.2764C18.433 13.0625 18.3336 12.8622 18.1982 12.6868C18.0735 12.5249 17.8974 12.3893 17.6251 12.219C17.2232 11.9687 16.9653 11.5423 16.9653 11.072C16.9653 10.6018 17.2232 10.1754 17.6243 9.9259C17.8974 9.75482 18.0735 9.61914 18.1991 9.45733C18.3343 9.28186 18.4336 9.08146 18.4913 8.86759C18.549 8.65371 18.5639 8.43056 18.5353 8.2109C18.4907 7.87886 18.2934 7.53839 17.8974 6.85829C17.5013 6.17819 17.3041 5.83856 17.0361 5.63377C16.6777 5.36173 16.2265 5.24183 15.7804 5.30004C15.5764 5.32701 15.3699 5.4096 15.0851 5.55961C14.8805 5.67071 14.6512 5.72834 14.4185 5.72716C14.1857 5.72598 13.957 5.66603 13.7535 5.55286C13.5544 5.43513 13.3885 5.26873 13.2713 5.06928C13.1541 4.86983 13.0895 4.64388 13.0836 4.41262C13.0709 4.09238 13.0406 3.87326 12.9614 3.68533C12.876 3.48015 12.7509 3.29388 12.5932 3.13724C12.4356 2.9806 12.2485 2.85669 12.0428 2.77263ZM10.5435 13.6003C11.9509 13.6003 13.0911 12.4685 13.0911 11.072C13.0911 9.6756 11.9501 8.54379 10.5435 8.54379C9.13696 8.54379 7.99587 9.6756 7.99587 11.072C7.99587 12.4685 9.13696 13.6003 10.5435 13.6003Z" fill="#553A6B"/>
</svg>
