<svg width="43" height="42" viewBox="0 0 43 42" fill="none" xmlns="http://www.w3.org/2000/svg">
<path d="M30.5399 36.6013V33.1181C30.5399 31.2704 29.806 29.4985 28.4995 28.192C27.193 26.8855 25.421 26.1515 23.5734 26.1515H9.64036C7.79272 26.1515 6.02075 26.8855 4.71428 28.192C3.4078 29.4985 2.67383 31.2704 2.67383 33.1181V36.6013M40.9897 36.6013V33.1181C40.9886 31.5745 40.4748 30.075 39.5291 28.8551C38.5834 27.6352 37.2594 26.7638 35.7648 26.3779M28.7983 5.47837C30.2968 5.86205 31.625 6.73356 32.5735 7.95551C33.522 9.17745 34.0369 10.6803 34.0369 12.2272C34.0369 13.7741 33.522 15.2769 32.5735 16.4989C31.625 17.7208 30.2968 18.5923 28.7983 18.976M23.5734 12.2185C23.5734 16.066 20.4544 19.185 16.6069 19.185C12.7594 19.185 9.64036 16.066 9.64036 12.2185C9.64036 8.37097 12.7594 5.25195 16.6069 5.25195C20.4544 5.25195 23.5734 8.37097 23.5734 12.2185Z" stroke="#1E1E1E" stroke-width="1.5" stroke-linecap="round" stroke-linejoin="round"/>
</svg>
