<svg width="46" height="46" viewBox="0 0 46 46" fill="none" xmlns="http://www.w3.org/2000/svg">
<path d="M35.0085 24.8844H10.8579C9.31598 24.8844 8.07129 23.6397 8.07129 22.0978V18.3823C8.07129 16.8404 9.31598 15.5957 10.8579 15.5957H35.0085C36.5505 15.5957 37.7951 16.8404 37.7951 18.3823V22.0978C37.7951 23.6397 36.5505 24.8844 35.0085 24.8844Z" stroke="#000305" stroke-width="1.5" stroke-linecap="round" stroke-linejoin="round"/>
<path d="M32.0361 41.604H13.8303C10.6721 41.604 8.07129 39.0218 8.07129 35.845V10.2082C8.07129 7.05007 10.6536 4.44922 13.8303 4.44922H32.0361C35.1943 4.44922 37.7951 7.03149 37.7951 10.2082V35.845C37.7951 39.0218 35.2129 41.604 32.0361 41.604Z" stroke="#000305" stroke-width="1.5" stroke-linecap="round" stroke-linejoin="round"/>
<path d="M16.4206 33.6164H16.4373" stroke="#000305" stroke-width="1.5" stroke-linecap="round" stroke-linejoin="round"/>
<path d="M29.4245 33.6164H29.4412" stroke="#000305" stroke-width="1.5" stroke-linecap="round" stroke-linejoin="round"/>
<path d="M18.2891 10.0225H27.5778" stroke="#000305" stroke-width="1.5" stroke-linecap="round" stroke-linejoin="round"/>
</svg>
