<svg width="47" height="47" viewBox="0 0 47 47" fill="none" xmlns="http://www.w3.org/2000/svg">
<path d="M33.3076 40.8018H14.5576C7.05762 40.8018 5.18262 38.9268 5.18262 31.4268V16.4268C5.18262 8.92676 7.05762 7.05176 14.5576 7.05176H33.3076C40.8076 7.05176 42.6826 8.92676 42.6826 16.4268V31.4268C42.6826 38.9268 40.8076 40.8018 33.3076 40.8018Z" stroke="#000305" stroke-width="1.5" stroke-linecap="round" stroke-linejoin="round"/>
<path d="M27.6826 16.4268H37.0576" stroke="#000305" stroke-width="1.5" stroke-linecap="round" stroke-linejoin="round"/>
<path d="M29.5576 23.9268H37.0576" stroke="#000305" stroke-width="1.5" stroke-linecap="round" stroke-linejoin="round"/>
<path d="M33.3076 31.4268H37.0576" stroke="#000305" stroke-width="1.5" stroke-linecap="round" stroke-linejoin="round"/>
<path d="M17.3703 22.5951C19.2446 22.5951 20.7641 21.0757 20.7641 19.2014C20.7641 17.327 19.2446 15.8076 17.3703 15.8076C15.496 15.8076 13.9766 17.327 13.9766 19.2014C13.9766 21.0757 15.496 22.5951 17.3703 22.5951Z" stroke="#000305" stroke-width="1.5" stroke-linecap="round" stroke-linejoin="round"/>
<path d="M23.9326 32.0453C23.6701 29.3266 21.5139 27.1891 18.7951 26.9453C17.8576 26.8516 16.9014 26.8516 15.9451 26.9453C13.2264 27.2078 11.0701 29.3266 10.8076 32.0453" stroke="#000305" stroke-width="1.5" stroke-linecap="round" stroke-linejoin="round"/>
</svg>
