<svg width="44" height="44" viewBox="0 0 44 44" fill="none" xmlns="http://www.w3.org/2000/svg">
<path d="M4.97754 30.9984L9.3867 22.1204L13.385 28.6463L8.97583 37.3479L4.97754 30.9984ZM14.7968 12.1844L22.8513 25.1774C20.8458 27.1512 20.0385 29.7504 19.9109 32.7034L11.3858 18.5927L14.7968 12.1844ZM26.6722 12.0088L32.9638 22.0615C30.3465 21.6136 28.0098 21.7249 25.9672 22.8263L23.3798 18.6515L26.6722 12.0088ZM35.0362 31.7849C35.0362 34.679 32.7438 37.0248 29.9157 37.0248C27.0876 37.0248 24.7943 34.679 24.7943 31.7849C24.7943 28.8907 27.0876 26.5449 29.9157 26.5449C32.7438 26.5449 35.0362 28.8907 35.0362 31.7849Z" stroke="black" stroke-width="0.905" stroke-linecap="round" stroke-linejoin="round"/>
<path d="M26.0371 34.9339C26.0371 34.9339 27.1466 33.0696 29.7937 33.0208C32.8752 32.9638 33.8291 35.143 33.8291 35.143M29.9403 26.3744L29.9331 24.9853M33.4291 27.7537L34.2816 26.7944M35.1866 31.6434L36.4029 31.6298M33.5802 35.7584L34.2119 36.3602M29.7322 37.1141L29.724 38.1005M25.9773 35.5122L25.3411 36.1865M24.5583 31.7339H23.3936M25.9438 28.0577L24.9936 27.1419M34.7441 9.95865C34.5494 9.29263 34.1213 8.71907 33.5381 8.34309C32.9549 7.9671 32.2558 7.81389 31.5688 7.91152C30.8818 8.00916 30.253 8.35111 29.7977 8.87469C29.3424 9.39827 29.091 10.0684 29.0896 10.7623C29.0896 10.7828 29.0908 10.8033 29.0932 10.8238M31.3738 30.4126C31.3738 31.1881 30.7286 31.818 29.9331 31.818C29.1367 31.818 28.4923 31.1881 28.4923 30.4126C28.4923 29.6361 29.1376 29.0071 29.9331 29.0071C30.7286 29.0071 31.3738 29.6361 31.3738 30.4126Z" stroke="black" stroke-width="0.905" stroke-linecap="round" stroke-linejoin="round"/>
<path d="M35.8708 10.2344L35.9196 10.3068C35.8478 9.2982 35.3967 8.35427 34.6571 7.66486C33.9175 6.97544 32.9442 6.5917 31.9331 6.59082C31.3369 6.59238 30.7486 6.72719 30.2112 6.9854C29.6738 7.2436 29.2009 7.61867 28.8271 8.08317" stroke="black" stroke-width="0.905" stroke-linecap="round" stroke-linejoin="round"/>
<path d="M36.6273 12.9274C36.9911 12.2034 37.1821 11.4042 37.1848 10.5943C37.1853 9.20135 36.6325 7.86527 35.6479 6.8799C34.6634 5.89453 33.3278 5.34056 31.9349 5.33984C31.6966 5.34169 31.4587 5.35923 31.2227 5.39233" stroke="black" stroke-width="0.905" stroke-linecap="round" stroke-linejoin="round"/>
<path d="M34.3564 16.6395C35.5658 16.1563 36.6031 15.3225 37.3349 14.2452C38.0667 13.168 38.4597 11.8965 38.4633 10.5941C38.4627 9.59869 38.2347 8.61655 37.7966 7.72269C37.3585 6.82884 36.722 6.04688 35.9357 5.43652" stroke="black" stroke-width="0.905" stroke-linecap="round" stroke-linejoin="round"/>
</svg>
