<svg width="19" height="18" viewBox="0 0 19 18" fill="none" xmlns="http://www.w3.org/2000/svg">
<path fill-rule="evenodd" clip-rule="evenodd" d="M5.79532 3.90832C5.79532 2.8741 6.20616 1.88224 6.93746 1.15094C7.66877 0.419632 8.66063 0.00878906 9.69485 0.00878906C10.7291 0.00878906 11.7209 0.419632 12.4522 1.15094C13.1835 1.88224 13.5944 2.8741 13.5944 3.90832C13.5944 4.94254 13.1835 5.93441 12.4522 6.66571C11.7209 7.39702 10.7291 7.80786 9.69485 7.80786C8.66063 7.80786 7.66877 7.39702 6.93746 6.66571C6.20616 5.93441 5.79532 4.94254 5.79532 3.90832ZM5.79532 9.75763C4.50254 9.75763 3.26271 10.2712 2.34858 11.1853C1.43445 12.0994 0.920898 13.3393 0.920898 14.632C0.920898 15.4077 1.22903 16.1516 1.77751 16.7001C2.32599 17.2486 3.06988 17.5567 3.84555 17.5567H15.5442C16.3198 17.5567 17.0637 17.2486 17.6122 16.7001C18.1607 16.1516 18.4688 15.4077 18.4688 14.632C18.4688 13.3393 17.9553 12.0994 17.0411 11.1853C16.127 10.2712 14.8872 9.75763 13.5944 9.75763H5.79532Z" fill="#9D9C9C"/>
</svg>
