<svg width="20" height="20" viewBox="0 0 20 20" fill="none" xmlns="http://www.w3.org/2000/svg">
<path fill-rule="evenodd" clip-rule="evenodd" d="M12.083 4.58363C12.083 2.97281 10.7771 1.66699 9.16633 1.66699L9.00629 1.67129C7.46988 1.75438 6.24965 3.02652 6.24965 4.58363C6.24965 6.19449 7.55551 7.50031 9.16633 7.50031L9.32637 7.49598C10.8628 7.41293 12.083 6.14078 12.083 4.58363ZM9.99965 14.167C9.99965 15.0777 10.2431 15.9316 10.6686 16.667H3.33301V13.667C3.33301 11.2438 5.19504 9.26801 7.52766 9.17074L7.70797 9.16699H10.6246C11.3838 9.16699 12.0978 9.36586 12.72 9.7157C11.1048 10.5446 9.99965 12.2267 9.99965 14.167ZM12.5505 17.5379L14.9996 16.042L17.4487 17.5379L16.7829 14.7464L18.9624 12.8794L16.1018 12.6501L14.9996 10.0003L13.8975 12.6501L11.0369 12.8794L13.2164 14.7464L12.5505 17.5379Z" fill="white"/>
</svg>
