<svg width="19" height="19" viewBox="0 0 19 19" fill="none" xmlns="http://www.w3.org/2000/svg">
<path fill-rule="evenodd" clip-rule="evenodd" d="M16.0818 6.66234C16.0389 6.65981 15.9931 6.6588 15.9446 6.65931H14.0294C12.4609 6.65931 11.1191 7.8941 11.1191 9.50359C11.1191 11.1131 12.4616 12.3479 14.0294 12.3479H15.9446C15.9931 12.3484 16.0391 12.3474 16.0826 12.3448C16.405 12.3254 16.7093 12.1894 16.9388 11.9623C17.1684 11.7351 17.3075 11.4322 17.3303 11.11C17.3333 11.0645 17.3333 11.0152 17.3333 10.9697V8.03746C17.3333 7.99195 17.3333 7.94265 17.3303 7.89714C17.3075 7.57499 17.1684 7.2721 16.9388 7.04493C16.7093 6.81775 16.4042 6.68178 16.0818 6.66234ZM13.8618 10.2621C14.2653 10.2621 14.5922 9.92227 14.5922 9.50359C14.5922 9.08491 14.2653 8.74511 13.8618 8.74511C13.4575 8.74511 13.1306 9.08491 13.1306 9.50359C13.1306 9.92227 13.4575 10.2621 13.8618 10.2621Z" fill="#553A6B"/>
<path fill-rule="evenodd" clip-rule="evenodd" d="M15.9445 13.4849C15.9708 13.4838 15.9969 13.489 16.0207 13.4999C16.0446 13.5108 16.0655 13.5272 16.0819 13.5478C16.0982 13.5683 16.1095 13.5924 16.1147 13.6181C16.12 13.6438 16.1191 13.6704 16.1122 13.6957C15.9605 14.2358 15.7185 14.6969 15.3309 15.0837C14.7628 15.6526 14.0431 15.9037 13.1541 16.0235C12.2895 16.1395 11.1859 16.1395 9.79179 16.1395H8.18989C6.79581 16.1395 5.69147 16.1395 4.82757 16.0235C3.93864 15.9037 3.21884 15.6518 2.65074 15.0845C2.0834 14.5164 1.83159 13.7966 1.71175 12.9077C1.5957 12.043 1.5957 10.9394 1.5957 9.54535V9.4604C1.5957 8.06632 1.5957 6.96198 1.71175 6.09732C1.83159 5.20838 2.0834 4.48859 2.65074 3.92049C3.21884 3.35315 3.93864 3.10134 4.82757 2.9815C5.69223 2.86621 6.79581 2.86621 8.18989 2.86621H9.79179C11.1859 2.86621 12.2902 2.86621 13.1541 2.98226C14.0431 3.1021 14.7628 3.35391 15.3309 3.92125C15.7185 4.30959 15.9605 4.76999 16.1122 5.31002C16.1191 5.33533 16.12 5.36192 16.1147 5.38763C16.1095 5.41334 16.0982 5.43744 16.0819 5.45798C16.0655 5.47853 16.0446 5.49493 16.0207 5.50586C15.9969 5.51678 15.9708 5.52193 15.9445 5.52088H14.0302C11.8784 5.52088 9.98217 7.21986 9.98217 9.50288C9.98217 11.7859 11.8784 13.4849 14.0302 13.4849H15.9445ZM4.43999 5.90011C4.28912 5.90011 4.14443 5.96005 4.03774 6.06673C3.93106 6.17341 3.87113 6.3181 3.87113 6.46897C3.87113 6.61984 3.93106 6.76453 4.03774 6.87121C4.14443 6.9779 4.28912 7.03783 4.43999 7.03783H7.47389C7.62476 7.03783 7.76945 6.9779 7.87613 6.87121C7.98281 6.76453 8.04275 6.61984 8.04275 6.46897C8.04275 6.3181 7.98281 6.17341 7.87613 6.06673C7.76945 5.96005 7.62476 5.90011 7.47389 5.90011H4.43999Z" fill="#553A6B"/>
</svg>
