<svg width="18" height="18" viewBox="0 0 18 18" fill="none" xmlns="http://www.w3.org/2000/svg">
<path fill-rule="evenodd" clip-rule="evenodd" d="M15.8252 6.00312C15.7827 6.00062 15.7375 5.99963 15.6895 6.00013H13.7957C12.2447 6.00013 10.918 7.22113 10.918 8.81262C10.918 10.4041 12.2455 11.6251 13.7957 11.6251H15.6895C15.7375 11.6256 15.783 11.6246 15.826 11.6221C16.1447 11.6029 16.4456 11.4684 16.6726 11.2438C16.8996 11.0192 17.0372 10.7197 17.0597 10.4011C17.0627 10.3561 17.0627 10.3074 17.0627 10.2624V7.36288C17.0627 7.31788 17.0627 7.26912 17.0597 7.22412C17.0372 6.90557 16.8996 6.60608 16.6726 6.38144C16.4456 6.1568 16.144 6.02235 15.8252 6.00312ZM13.63 9.56263C14.029 9.56263 14.3522 9.22662 14.3522 8.81262C14.3522 8.39862 14.029 8.06262 13.63 8.06262C13.2302 8.06262 12.907 8.39862 12.907 8.81262C12.907 9.22662 13.2302 9.56263 13.63 9.56263Z" fill="white"/>
<path fill-rule="evenodd" clip-rule="evenodd" d="M15.6885 12.75C15.7144 12.749 15.7402 12.754 15.7638 12.7649C15.7874 12.7757 15.8081 12.7919 15.8243 12.8122C15.8404 12.8325 15.8516 12.8563 15.8568 12.8818C15.862 12.9072 15.8611 12.9335 15.8542 12.9585C15.7043 13.4925 15.465 13.9485 15.0817 14.331C14.52 14.8935 13.8083 15.1418 12.9293 15.2603C12.0743 15.375 10.983 15.375 9.6045 15.375H8.0205C6.642 15.375 5.55 15.375 4.69575 15.2603C3.81675 15.1418 3.105 14.8927 2.54325 14.3317C1.98225 13.77 1.73325 13.0583 1.61475 12.1793C1.5 11.3243 1.5 10.233 1.5 8.8545V8.7705C1.5 7.392 1.5 6.3 1.61475 5.445C1.73325 4.566 1.98225 3.85425 2.54325 3.2925C3.105 2.7315 3.81675 2.4825 4.69575 2.364C5.55075 2.25 6.642 2.25 8.0205 2.25H9.6045C10.983 2.25 12.075 2.25 12.9293 2.36475C13.8083 2.48325 14.52 2.73225 15.0817 3.29325C15.465 3.67725 15.7043 4.1325 15.8542 4.6665C15.8611 4.69153 15.862 4.71782 15.8568 4.74324C15.8516 4.76866 15.8404 4.7925 15.8243 4.81281C15.8081 4.83312 15.7874 4.84934 15.7638 4.86015C15.7402 4.87095 15.7144 4.87604 15.6885 4.875H13.7955C11.6677 4.875 9.79275 6.555 9.79275 8.8125C9.79275 11.07 11.6677 12.75 13.7955 12.75H15.6885ZM4.3125 5.25C4.16332 5.25 4.02024 5.30926 3.91475 5.41475C3.80926 5.52024 3.75 5.66332 3.75 5.8125C3.75 5.96168 3.80926 6.10476 3.91475 6.21025C4.02024 6.31574 4.16332 6.375 4.3125 6.375H7.3125C7.46168 6.375 7.60476 6.31574 7.71025 6.21025C7.81574 6.10476 7.875 5.96168 7.875 5.8125C7.875 5.66332 7.81574 5.52024 7.71025 5.41475C7.60476 5.30926 7.46168 5.25 7.3125 5.25H4.3125Z" fill="white"/>
</svg>
