<svg width="99" height="119" viewBox="0 0 99 119" fill="none" xmlns="http://www.w3.org/2000/svg">
<path d="M-0.00387573 71.9377V114.093C-0.00387573 116.283 2.27285 117.729 4.25467 116.798L76.0969 83.0635C77.1455 82.5711 77.8151 81.517 77.8151 80.3585V36.6413C77.8151 34.4289 75.4947 32.9835 73.509 33.9591L1.66675 69.2555C0.644077 69.758 -0.00387573 70.7982 -0.00387573 71.9377Z" fill="#141C32"/>
<path d="M41.0725 31.5824V73.9796C41.0725 76.1697 43.3506 77.6159 45.3325 76.6839L96.8655 52.4511C97.9133 51.9584 98.5822 50.9047 98.5822 49.7468V5.81591C98.5822 3.59441 96.2443 2.14954 94.2574 3.14303L42.7244 28.9095C41.712 29.4157 41.0725 30.4505 41.0725 31.5824Z" fill="#41DE7D"/>
<path d="M41.0802 54.1274L41.1683 77.3462C41.1683 77.9853 41.8267 78.4123 42.4103 78.1516L74.9662 63.608C76.0426 63.1271 76.7357 62.0584 76.7357 60.8795V42.0038C76.7357 39.8808 74.5839 38.4348 72.6182 39.237L42.9393 51.3493C41.8112 51.8097 41.0755 52.909 41.0802 54.1274Z" fill="#6746A3"/>
</svg>
